<?xml version="1.0" encoding="utf-8"?>
<!-- Generator: Adobe Illustrator 23.0.0, SVG Export Plug-In . SVG Version: 6.00 Build 0)  -->
<svg version="1.1" id="图层_1" xmlns="http://www.w3.org/2000/svg" xmlns:xlink="http://www.w3.org/1999/xlink" x="0px" y="0px"
	 viewBox="0 0 150 48" style="enable-background:new 0 0 150 48;" xml:space="preserve">
<style type="text/css">
	.st0{fill:#231815;}
	.st1{fill:#D80C18;}
</style>
<g>
	<g>
		<path class="st0" d="M65.5,33c-0.2-0.1-0.4-0.1-0.6-0.2c-0.2-0.1-0.4-0.1-0.6-0.1c-0.2,0-0.4,0-0.6,0c-0.2,0-0.4,0.1-0.5,0.2
			C63.1,33,63,33.1,63,33.2c0,0.1-0.1,0.2-0.1,0.4c0,0.2,0,0.3,0.1,0.4c0.1,0.1,0.2,0.2,0.3,0.3c0.2,0.1,0.4,0.2,0.5,0.3
			c0.2,0.1,0.4,0.2,0.6,0.3c0.2,0.1,0.4,0.2,0.5,0.3c0.2,0.1,0.3,0.2,0.5,0.4c0.1,0.1,0.2,0.3,0.3,0.4c0.1,0.2,0.1,0.3,0.2,0.5
			c0,0.2,0,0.3,0,0.5c0,0.2-0.1,0.3-0.2,0.5c-0.1,0.2-0.2,0.3-0.4,0.5c-0.2,0.1-0.3,0.2-0.5,0.3c-0.2,0.1-0.4,0.1-0.6,0.2
			c-0.2,0-0.4,0-0.6,0c-0.3,0-0.5,0-0.7-0.1c-0.2,0-0.5-0.1-0.7-0.1v-0.6c0.3,0.1,0.5,0.2,0.8,0.3c0.3,0.1,0.5,0.1,0.8,0.1
			c0.2,0,0.4,0,0.5-0.1c0.2,0,0.3-0.1,0.4-0.2c0.2-0.2,0.3-0.5,0.3-0.9c0-0.2,0-0.3-0.1-0.5c-0.1-0.1-0.2-0.3-0.3-0.4
			c-0.2-0.1-0.3-0.2-0.5-0.3c-0.2-0.1-0.4-0.2-0.5-0.3c-0.2-0.1-0.4-0.2-0.5-0.3c-0.2-0.1-0.3-0.2-0.5-0.4c-0.3-0.3-0.5-0.7-0.5-1.1
			c0-0.5,0.2-0.9,0.5-1.1c0.1-0.1,0.3-0.2,0.4-0.2c0.1-0.1,0.3-0.1,0.5-0.1c0.2,0,0.3,0,0.5,0c0.2,0,0.3,0,0.5,0
			c0.2,0,0.3,0,0.5,0.1c0.2,0,0.3,0.1,0.4,0.1V33z"/>
		<path class="st0" d="M83.5,36.7v1.7h-0.7v-5.2c0-0.1,0-0.3,0-0.3c0-0.1-0.1-0.1-0.1-0.2c0,0,0-0.1-0.1-0.1c0,0-0.1-0.1-0.1-0.1
			c0,0-0.1-0.1-0.2-0.1c-0.1,0-0.1-0.1-0.2-0.1v-0.2h1.5V36.7z"/>
		<path class="st0" d="M105.8,38.5h-0.5l-3.9-4.9v5h-0.6V33c0-0.1-0.1-0.2-0.1-0.2c-0.1-0.1-0.1-0.1-0.2-0.2
			c-0.1-0.1-0.2-0.1-0.4-0.1v-0.2l1.3,0l3.9,4.8v-4.8h0.5V38.5z"/>
		<path class="st0" d="M127.5,35.4v2.4c0,0-0.1,0.1-0.1,0.1c0,0-0.1,0.1-0.2,0.1c-0.1,0-0.2,0.1-0.2,0.2c-0.2,0.1-0.5,0.2-0.8,0.3
			c-0.3,0.1-0.5,0.1-0.8,0.1c-0.4,0-0.7-0.1-1.1-0.2c-0.3-0.1-0.6-0.3-0.9-0.5c-0.3-0.2-0.5-0.5-0.7-0.8c-0.2-0.3-0.3-0.6-0.4-1
			c0-0.2-0.1-0.3-0.1-0.5c0-0.2,0-0.3,0-0.5c0-0.2,0-0.3,0.1-0.5c0-0.2,0.1-0.4,0.2-0.5c0.1-0.3,0.2-0.5,0.4-0.7
			c0.2-0.2,0.4-0.4,0.6-0.6c0.2-0.2,0.4-0.3,0.7-0.4c0.2-0.1,0.5-0.2,0.8-0.2c0.3,0,0.5-0.1,0.8,0c0.3,0,0.5,0.1,0.8,0.2
			c0.1,0,0.2,0.1,0.3,0.1c0.1,0,0.2,0.1,0.2,0.1c0,0,0.1-0.1,0.1-0.1c0,0,0.1-0.1,0.1-0.1c0,0,0.1-0.1,0.1-0.2
			c0-0.1,0.1-0.2,0.1-0.3h0.2v1.8h-0.1c-0.1-0.1-0.2-0.2-0.3-0.3c-0.1-0.1-0.2-0.2-0.3-0.3c-0.1-0.1-0.3-0.2-0.4-0.2
			c-0.1-0.1-0.3-0.1-0.4-0.1c-0.2-0.1-0.4-0.1-0.7-0.1c-0.2,0-0.5,0-0.7,0.1c-0.2,0.1-0.4,0.1-0.6,0.3c-0.2,0.1-0.4,0.2-0.5,0.4
			c-0.2,0.2-0.4,0.5-0.5,0.8c-0.1,0.3-0.2,0.6-0.2,1c0,0.3,0.1,0.7,0.2,1c0.1,0.3,0.3,0.6,0.5,0.8c0.2,0.2,0.5,0.4,0.8,0.6
			c0.3,0.1,0.6,0.2,1,0.2c0.1,0,0.3,0,0.4,0c0.1,0,0.2,0,0.3-0.1c0.1,0,0.2-0.1,0.3-0.1c0.1-0.1,0.2-0.1,0.4-0.2v-1.3h-0.7
			c0.1-0.1,0.2-0.2,0.3-0.3c0.1-0.1,0.1-0.2,0.2-0.3H127.5z"/>
		<path class="st0" d="M146.8,32.1c0.3,0,0.6,0,0.8,0.1c0.3,0.1,0.5,0.2,0.8,0.3c0.2,0.1,0.5,0.3,0.6,0.5c0.2,0.2,0.4,0.4,0.5,0.6
			c0.1,0.2,0.2,0.5,0.3,0.8c0.1,0.3,0.1,0.6,0.1,0.9c0,0.3,0,0.6-0.1,0.9c-0.1,0.3-0.2,0.5-0.3,0.8c-0.1,0.2-0.3,0.4-0.5,0.6
			c-0.2,0.2-0.4,0.4-0.6,0.5c-0.2,0.1-0.5,0.2-0.8,0.3c-0.3,0.1-0.6,0.1-0.8,0.1c-0.3,0-0.6,0-0.9-0.1c-0.3-0.1-0.5-0.2-0.8-0.3
			c-0.2-0.1-0.5-0.3-0.6-0.5c-0.2-0.2-0.4-0.4-0.5-0.6c-0.1-0.2-0.2-0.5-0.3-0.8c-0.1-0.3-0.1-0.6-0.1-0.9c0-0.3,0-0.6,0.1-0.9
			c0.1-0.3,0.2-0.5,0.3-0.8c0.1-0.2,0.3-0.5,0.5-0.6c0.2-0.2,0.4-0.4,0.6-0.5c0.2-0.1,0.5-0.2,0.8-0.3
			C146.2,32.2,146.5,32.1,146.8,32.1z M146.8,37.9c0.4,0,0.7-0.1,1-0.2c0.3-0.1,0.6-0.3,0.8-0.6c0.2-0.2,0.4-0.5,0.6-0.8
			c0.1-0.3,0.2-0.6,0.2-1c0-0.4-0.1-0.7-0.2-1c-0.1-0.3-0.3-0.6-0.6-0.8c-0.2-0.2-0.5-0.4-0.8-0.6c-0.3-0.1-0.6-0.2-1-0.2
			c-0.4,0-0.7,0.1-1,0.2c-0.3,0.1-0.6,0.3-0.8,0.6c-0.2,0.2-0.4,0.5-0.6,0.8c-0.1,0.3-0.2,0.6-0.2,1c0,0.4,0.1,0.7,0.2,1
			c0.1,0.3,0.3,0.6,0.6,0.8c0.2,0.2,0.5,0.4,0.8,0.6C146.1,37.8,146.4,37.9,146.8,37.9z"/>
	</g>
	<g>
		<g>
			<path class="st1" d="M4.9,15.1v6.4v1.3v0.1h15.9h1.1h0.4v-5c0-4.5-8.7-4.1-8.7-4.1v1c7.1,0.2,7.2,3.1,7.2,3.1v3.6H6.4v-4.9
				C5.2,15.9,4.9,15.1,4.9,15.1z"/>
			<path class="st1" d="M44.4,7.5L44.4,7.5L44.4,7.5C44.2,7,44,6.6,43.8,6.3l-0.2,0.2l0,0l-2.4,2.6h-6.6V8h-1.5v1.1h-7.8v1.3H29
				l-3.7,12.2h1.5l3.7-12.2h2.7v12.2h1.5V10.4h2.7l3.7,12.2h1.5l-3.7-12.2h3.1v-0.1l1.6-1.8c1.2,3.2,1.4,8,1.4,15.3
				c0,8.3-0.3,13.2-1.8,16.3l-1-0.9c-0.1-0.1-0.2-0.3-0.3-0.4c-1.4-2.5-4.1-8.6,0.7-14h-1.7c0,0-5.5,5.8-0.4,14.5l0,0
				c0.1,0.2,0.2,0.4,0.4,0.6c0,0,0,0,0,0.1c0,0,0,0,0,0c0.6,0.9,1.5,1.6,2.6,2.2c2.3-3.3,2.8-8.6,2.8-18.4
				C46.1,16.1,45.8,10.9,44.4,7.5z"/>
			<path class="st1" d="M23.7,2.3c9.7,0,14.9,0.4,17.8,3.2l0.9-1.1c-3.1-3-8.7-3.5-18.7-3.5C13.5,0.9,7.9,1.5,4.5,4.3l0.9,1.1
				C8.5,2.8,14.1,2.3,23.7,2.3z"/>
			<path class="st1" d="M23.7,45.7c-9,0-14.5-0.5-17.7-2.8L5.1,44c3.5,2.5,9.2,3.1,18.6,3.1c9.6,0,15-0.5,18.2-3.2l-0.9-1.1
				C38,45.2,32.7,45.7,23.7,45.7z"/>
			<path class="st1" d="M6.1,39.7h16.3v-1.3h-8.2l0.3-2.1v-2.5h7.9v-1.3h-7.9v-4.6h7.9v-1.3h-7.9v-1.4h-1.5v1.4H6.4l-0.9-0.9
				l-1.3,1.1l1.4,1.1h7.4v4.6H4.9v1.3h8.1v2.6l-0.3,2H5.7l-1.9,2.2c-2-3.2-2.4-8.4-2.4-16.6c0-7.5,0.4-12.6,2-15.9l1.5,1.4v0.1V13
				c0,4.5,8.7,4,8.7,4v-1.1C6.5,15.8,6.4,13,6.4,13V9.5h14.5v4.8c1.2,0.7,1.5,1.4,1.5,1.4V9.5V8.2h-1.5H5.5L3.6,6.5l0,0L3,6
				c-2.5,3.5-3,9.2-3,17.9c0,9.7,0.7,15.4,3.6,18.7L4.1,42l0,0L6.1,39.7z"/>
			<rect x="33.1" y="24.9" class="st1" width="1.4" height="14.8"/>
			<path class="st1" d="M26.9,40c5.8-9,0-15.1,0-15.1h-1.7c6.2,7,0,15.1,0,15.1S25.5,40,26.9,40z"/>
		</g>
		<g>
			<path class="st0" d="M62.3,15.9h1.2h6.9h0.4h0.8v-3v-0.8V9.7h0h-1.2h-6.9h-1.2V15.9z M70.4,15.2h-6.8v-2h6v-0.8h-6v-1.9h6.9
				L70.4,15.2C70.4,15.2,70.4,15.2,70.4,15.2z"/>
			<path class="st0" d="M66.5,19.5V22h-4v0.8h4v3.1h-5.1v0.4l0,0v0.4l0,0H72c0.3,0,0.6-0.2,0.6-0.5v-0.2h-4.8v-3.1h3.3
				c0.2,0,0.4-0.2,0.4-0.4V22h-3.7v-2.5h3.9c0.2,0,0.4-0.2,0.4-0.4v-0.4h-4.3v-2h-0.2h-0.9h-0.1v2H63l0.4-1.3h-1l-0.6,2.1H66.5z"/>
		</g>
		<g>
			<path class="st0" d="M83,11.4V9.1h-0.2H82h-0.2v2.3h-4.9v0.3h0v0.4h0v0h3h0.9h1V21H82h0.9H83v-8.9h0H84h0.9h2.6
				c0.2,0,0.4-0.2,0.4-0.4v-0.4H83z"/>
			<polygon class="st0" points="83.9,12.9 86.7,21 88,21 85.1,12.9 			"/>
			<polygon class="st0" points="80.9,12.9 78.1,21 76.9,21 79.7,12.9 			"/>
			<polygon class="st0" points="79.2,22.2 78.1,26.7 76.9,26.7 77.9,22.2 			"/>
			<polygon class="st0" points="80.2,22.2 81.2,26.7 82.5,26.7 81.4,22.2 			"/>
			<polygon class="st0" points="83.1,22.2 84.2,26.7 85.4,26.7 84.3,22.2 			"/>
			<polygon class="st0" points="86.1,22.2 87.1,26.7 88.4,26.7 87.3,22.2 			"/>
		</g>
		<g>
			<path class="st0" d="M134.3,19.4V18v-0.8v0h0l0,0h-5.6l0,0h-0.9v0V18v1.4l2.6,3.5l-2.9,3.8h1.1l2.3-3l2.3,3h1.1l-2.9-3.8
				L134.3,19.4z M129.1,19.4V18h4v1.4l-2,2.7L129.1,19.4z"/>
			<polygon class="st0" points="126.2,13.1 126.2,9.8 125.8,9.8 124.9,9.8 124.9,13.1 125.8,13.1 			"/>
			<polygon class="st0" points="126.2,14.3 125.8,14.3 124.9,14.3 123.7,14.3 123.7,15.1 124.9,15.1 124.9,26.6 126.9,26.6 
				126.9,26.2 126.9,25.8 126.2,25.8 			"/>
			<path class="st0" d="M129.8,12.2v-1.6h2.8v5.6h0.3h0.9h0.8l0-0.8h-0.8V9.8h-0.1h-1.2h-4l0,0h-0.1v2.6c0,1.7-0.3,2.6-1,3.8h1.3
				C129.6,14.8,129.8,13.9,129.8,12.2z"/>
		</g>
		<g>
			<polygon class="st0" points="99.2,19 100,22.2 101.3,22.2 100.4,19 			"/>
			<path class="st0" d="M101.4,23.4v-0.4h-2.8v-5.1h1.8c0.2,0,0.4-0.2,0.4-0.4V17h-2.2v-4h1.9c0.2,0,0.4-0.2,0.4-0.4v-0.4h-2.3h-1.2
				h-2.3v0.8h2.3v4h-2.2v0.8h2.2v5.1h-2.8v0.4v0.4h6.4C101.3,23.7,101.4,23.6,101.4,23.4z"/>
			<path class="st0" d="M103.5,9.9h-1.2h-8.3h-1.1h-0.2v16.3h0.2h10.6v-0.3l0,0l0,0V10.7V9.9L103.5,9.9z M93.9,25.4V10.7h8.3v14.7
				h-2.3v0H93.9z"/>
		</g>
		<g>
			<path class="st0" d="M118.7,10.5v-0.4h0v0h-5.9v0h0v0.8h5.5C118.5,10.9,118.7,10.7,118.7,10.5z"/>
			<path class="st0" d="M111.9,9.8h-0.4H109h-0.9h0h-0.3v16.9h0.3h0.9h0V10.6h2c-0.2,2-0.7,3.7-1.5,5.5c1.5,3,2.1,5.3,0.3,8h1
				c1.6-2.8,1.1-4.8-0.3-8C111.2,14.3,111.8,12.2,111.9,9.8z"/>
			<g>
				<polygon class="st0" points="117.3,16.3 118.3,25.8 119.4,25.8 118.4,16.3 				"/>
				<polygon class="st0" points="114.2,16.3 113.2,25.8 112.1,25.8 113.1,16.3 				"/>
				<polygon class="st0" points="115.1,26.7 115.1,26.7 116.4,26.7 116.4,15.1 115.1,15.1 115.1,25.9 				"/>
			</g>
			<path class="st0" d="M118.7,14.4c0.2,0,0.4-0.2,0.4-0.4v-0.4h-6.7v0.8H118.7z"/>
		</g>
		<g>
			<polygon class="st0" points="141.4,13.1 141.4,9.8 141.1,9.8 140.1,9.8 140.1,13.1 141.1,13.1 			"/>
			<polygon class="st0" points="141.4,14.3 141,14.3 140.1,14.3 138.9,14.3 138.9,15.1 140.1,15.1 140.1,26.6 142.1,26.6 
				142.1,26.2 142.1,25.8 141.4,25.8 			"/>
			<g>
				<polygon class="st0" points="147,14.3 147,14.3 147,9.8 145.7,9.8 145.7,14.3 142.7,14.3 142.7,14.6 142.7,14.6 142.7,15.1 
					142.7,15.1 142.7,15.1 145.7,15.1 145.7,15.1 145.7,26.7 145.9,26.7 146.8,26.7 147,26.7 147,15.1 147,15.1 147,15.1 				"/>
				<path class="st0" d="M147.7,14.3v0.8h1.9c0.2,0,0.4-0.2,0.4-0.4v-0.4H147.7z"/>
			</g>
		</g>
	</g>
</g>
</svg>
