<?xml version="1.0" encoding="utf-8"?>
<!-- Generator: Adobe Illustrator 23.0.0, SVG Export Plug-In . SVG Version: 6.00 Build 0)  -->
<svg version="1.1" id="图层_1" xmlns="http://www.w3.org/2000/svg" xmlns:xlink="http://www.w3.org/1999/xlink" x="0px" y="0px"
	 viewBox="0 0 398.7 209.9" style="enable-background:new 0 0 398.7 209.9;" xml:space="preserve">
<style type="text/css">
	.st0{fill:#FFFFFF;}
	.st1{fill:url(#SVGID_1_);}
	.st2{fill:url(#SVGID_2_);}
	.st3{fill:url(#SVGID_3_);}
	.st4{fill:url(#SVGID_4_);}
</style>
<g>
	<g>
		<g>
			<g>
				<path class="st0" d="M283.7,175.9c-1.4-37.2,24.8-46.8,35.3-53.2s30-19.5,25.4-26.2c-3-4-11.2,2.9-13.9,7.9
					c-0.4,0.8,2.1-10.9,10.4-14.7s20.1,3,9.9,14.3s-23.6,16.9-29.8,20.7c-6.2,3.8-30.2,16.5-25.7,54.7c0,0.2,0,0.4,0,0.4
					s-8.1-1.2-11.6-3.5C283.7,176,283.7,175.9,283.7,175.9z"/>
				
					<linearGradient id="SVGID_1_" gradientUnits="userSpaceOnUse" x1="292.1629" y1="65.7295" x2="317.6752" y2="58.8935" gradientTransform="matrix(1 0 0 1 0 50)">
					<stop  offset="0" style="stop-color:#FFFFFF"/>
					<stop  offset="0.9036" style="stop-color:#FFFFFF;stop-opacity:2.000000e-02"/>
				</linearGradient>
				<path class="st1" d="M292.6,112.5c-0.1,2.2-0.1,12.3,5.6,12.3s16.7-9.2,16.8-26.1C313.4,101.8,306.5,114.3,292.6,112.5z"/>
				<path class="st0" d="M311.1,85c4.5,2,9.8,7.6,7.9,37.4c2.9-0.2,6.6-3.8,6.6-3.8s3-19.4,7.5-31.7C330.6,83.6,323.3,81.3,311.1,85
					z"/>
				<path class="st0" d="M310.1,174.6c25.9,20.9,51.7-3.7,51.7-24c0-27-32.1-25.8-53.4-12c0,0,9.2-11.7,30.4-15.3
					c21.2-3.6,32,5.8,34.2,19.7c2.2,13.9-4.2,45-33.3,46.1C320,189.7,310.1,174.6,310.1,174.6z"/>
				
					<linearGradient id="SVGID_2_" gradientUnits="userSpaceOnUse" x1="340.6014" y1="109.745" x2="305.3513" y2="80.1666" gradientTransform="matrix(1 0 0 -1 0 262)">
					<stop  offset="0" style="stop-color:#FFFFFF"/>
					<stop  offset="0.8554" style="stop-color:#FFFFFF;stop-opacity:2.000000e-02"/>
				</linearGradient>
				<path class="st2" d="M316.6,177.5c-6.9-6.2-7.6-18.5-0.7-22.4s14.1-1.2,17,4s4.3,19.7-19.7,32c9.1,0,31.1-8.2,31.1-27.3
					s-22.2-23.2-32.3-13C302,161.1,307.8,173.9,316.6,177.5z"/>
			</g>
		</g>
		<g>
			<g>
				<path class="st0" d="M245.5,19c-13.3-4.7-23.7-0.8-33,4.5C203,28.8,195,37,182.9,54.1s-24.9,46.3-29.1,57.3
					s-11.1,31.4-13.5,39.3c0,0,14.1,9.8,15,10.3c0.8,0.5,1.8,0.3,2.1-0.7s9.1-61.5,22.1-84.9c12.9-23.2,34.1-43.7,45.9-47.2
					C229.7,23.8,235.7,18.5,245.5,19z"/>
				<path class="st0" d="M255.3,98.7c1.7-26,3.4-41.2,3.9-51.7c0.4-8.9,0.6-18.1-6.4-24c-11.2-3.5-17.9,0-22.8,4.4
					c7.6-0.6,8,4.8,8,6.6c0,1.8-3.2,31.6-3.1,50.8c2.7,1.1,5.5,2.6,8.2,4.3C247.1,91.6,251.2,94.8,255.3,98.7z"/>
				<path class="st0" d="M292.5,167.7c-1.1-2.5-2.5-5.4-4.9-8.1c0.7,3.7,3.6,13.5-0.6,13.1s-9.4-5.2-11.6-7.9s-22-33.6-20.4-61.9
					c-4.6-4.5-9.3-8.3-13.6-11.1c-2.2-1.4-4.3-2.5-6.5-3.5c0.1,1.7,0.2,3.3,0.3,4.8c1.7,17.3,4.4,33.6,11.6,48.3
					s17.8,29.3,34.1,34.9S293.5,170.2,292.5,167.7z"/>
			</g>
			<path class="st0" d="M206.6,84.4c5.8-2.8,17.8-6.9,35.2,4.1c17.5,11,43.5,40.8,52.5,81.8C300.3,136.2,249.8,46.6,206.6,84.4z"/>
			
				<linearGradient id="SVGID_3_" gradientUnits="userSpaceOnUse" x1="154.0029" y1="213.7764" x2="154.0029" y2="126.9" gradientTransform="matrix(1 0 0 -1 0 262)">
				<stop  offset="0" style="stop-color:#FFFFFF"/>
				<stop  offset="0.8554" style="stop-color:#FFFFFF;stop-opacity:2.000000e-02"/>
			</linearGradient>
			<path class="st3" d="M144.4,70.8c-0.7,1.3,4,17.4-3.5,64.3c5.2-15,15.9-46.4,25.9-61.7c-0.4-6.4-0.7-17,0.3-25
				c0.1-0.4-1.1-0.1-2.4,0.7C163.5,49.9,152.7,56.7,144.4,70.8z"/>
			
				<linearGradient id="SVGID_4_" gradientUnits="userSpaceOnUse" x1="202.8" y1="69.0527" x2="202.8" y2="191.3481" gradientTransform="matrix(1 0 0 -1 0 262)">
				<stop  offset="0" style="stop-color:#FFFFFF"/>
				<stop  offset="0.9069" style="stop-color:#FFFFFF;stop-opacity:4.000000e-02"/>
			</linearGradient>
			<path class="st4" d="M173.3,192.9c40.5,1.3,61.5-24.4,49.5-49.3c-3.5-7.9-16-22.2-21.4-36.4s-1.3-34.8,30.9-33.4
				c-5.1-2.9-32.5-9.8-44.3,14.7s12.8,42.1,16.4,60.6S186.9,189,173.3,192.9z"/>
		</g>
	</g>
	<g>
		<path class="st0" d="M51.2,92.7v25.9h-2.1v-1.5H28.6v1.5h-2V92.7H51.2z M49.2,115.2V94.6H28.7v20.7h20.5V115.2z M47.3,110.6v1.7
			H30.8v-1.7h7.1v-5.3h-5.8v-1.7h5.8v-4.5h-6.6v-1.8h15.5v1.8h-7v4.5H46v1.7h-6.2v5.3H47.3z M43.1,106c1.1,1,2.5,2.4,3.1,3.3
			l-1.4,0.8c-0.6-1-1.9-2.4-3.1-3.4L43.1,106z"/>
		<path class="st0" d="M74.8,93.3c-0.9,2.4-2.1,5.3-3.1,7.7c2.3,2.5,2.8,4.7,2.8,6.6c0,1.5-0.4,2.8-1.2,3.4c-0.4,0.3-1,0.5-1.6,0.6
			s-1.4,0.1-2.1,0c0-0.5-0.2-1.3-0.6-1.8c0.7,0,1.4,0.1,1.9,0c0.4,0,0.7-0.1,1-0.3c0.5-0.4,0.7-1.2,0.7-2.1c0-1.7-0.6-3.7-2.9-6.2
			c1-2.2,1.9-4.8,2.6-6.8h-4.7v24.2h-1.9v-26h7.4l0.3-0.1L74.8,93.3z M79.5,106.5c-0.9,3.5-2.4,6.9-4.1,9.2c-0.4-0.3-1.1-0.8-1.6-1
			c1.7-2.1,3.1-5.3,3.8-8.5L79.5,106.5z M91.4,100.8v1.9H84V116c0,1.2-0.2,1.8-1,2.2c-0.8,0.3-2.2,0.4-4.3,0.4
			c-0.1-0.6-0.4-1.4-0.7-2c1.6,0.1,3,0,3.4,0c0.5,0,0.6-0.1,0.6-0.5v-13.3h-6.5v-1.9h15.9V100.8z M89.8,95.6h-13v-1.9h13V95.6z
			 M87.9,106c1.5,2.9,2.9,6.6,3.5,9l-1.9,0.7c-0.5-2.3-1.9-6.2-3.3-9.1L87.9,106z"/>
	</g>
	<g>
		<path class="st0" d="M27.5,148.1v-0.2l0.8-0.1v-6.6h-1.5l-0.7,1.8h-0.3v-2h5.9v2h-0.3l-0.7-1.8h-1.5v6.6l0.8,0.1v0.2H27.5z"/>
		<path class="st0" d="M33.4,148.1v-0.2l0.8-0.1v-6.5l-0.8-0.1V141H36v0.2l-0.8,0.1v2.9h3.4v-2.9l-0.8-0.1V141h2.7v0.2l-0.8,0.1v6.5
			l0.8,0.1v0.2h-2.7v-0.2l0.8-0.1v-3.4h-3.4v3.4l0.8,0.1v0.2L33.4,148.1L33.4,148.1z"/>
		<path class="st0" d="M42.3,148.1v-0.2l0.8-0.1v-6.5l-0.8-0.1V141h5.4v2.1h-0.2l-0.7-1.8h-2.7v3.2h1.2l0.5-1.3H46v2.8h-0.2
			l-0.5-1.3h-1.2v3.3h2.8l0.7-2h0.2v2.2h-5.5V148.1z"/>
		<path class="st0" d="M55.7,148.3l-2.5-7l-0.6-0.1V141h2.5v0.2l-0.8,0.1l1.9,5.3l1.3-3.4l-0.7-1.9l-0.8-0.1V141h2.7v0.2l-0.8,0.1
			l2,5.3l1.9-5l-1-0.4V141h1.9v0.2l-0.7,0.4l-2.6,6.8h-0.1l-1.8-4.8L55.7,148.3L55.7,148.3z"/>
		<path class="st0" d="M65.7,147.8c-0.5-0.3-0.9-0.8-1.2-1.3c-0.3-0.6-0.4-1.2-0.4-2s0.1-1.4,0.4-2s0.7-1,1.2-1.3s1.1-0.5,1.8-0.5
			s1.2,0.2,1.8,0.5c0.5,0.3,0.9,0.8,1.2,1.3c0.3,0.6,0.4,1.2,0.4,2s-0.1,1.4-0.4,2s-0.7,1-1.2,1.3s-1.1,0.5-1.8,0.5
			S66.2,148.1,65.7,147.8z M68.6,147.7c0.3-0.2,0.6-0.6,0.8-1s0.3-0.9,0.3-1.5v-1.4c0-0.6-0.1-1.1-0.3-1.5s-0.5-0.8-0.8-1
			s-0.7-0.3-1.2-0.3c-0.4,0-0.8,0.1-1.2,0.3c-0.3,0.2-0.6,0.6-0.8,1s-0.3,0.9-0.3,1.5v1.4c0,0.6,0.1,1.1,0.3,1.5s0.5,0.8,0.8,1
			s0.7,0.3,1.2,0.3C67.9,148.1,68.3,148,68.6,147.7z"/>
		<path class="st0" d="M77.2,147.9c-0.2-0.2-0.3-0.4-0.3-0.8l-0.2-1.2c-0.1-0.4-0.2-0.7-0.4-1c-0.2-0.2-0.6-0.3-1-0.3h-0.7v3.2
			l0.8,0.1v0.2h-2.6v-0.2l0.8-0.1v-6.5l-0.8-0.1V141h2.5c1,0,1.7,0.2,2.1,0.5s0.7,0.8,0.7,1.4c0,1-0.6,1.6-1.9,1.8v0.1
			c0.5,0.1,0.8,0.2,1.1,0.5s0.5,0.6,0.5,1.1l0.1,0.8c0,0.3,0.1,0.6,0.2,0.7c0.1,0.1,0.2,0.2,0.3,0.2s0.2,0,0.3-0.1s0.2-0.1,0.3-0.2
			l0.2,0.2c-0.2,0.2-0.4,0.3-0.5,0.4c-0.2,0.1-0.4,0.1-0.6,0.1C77.7,148.2,77.4,148.1,77.2,147.9z M75.6,144.4c0.4,0,0.8-0.1,1-0.4
			s0.4-0.7,0.4-1.2v-0.2c0-1-0.6-1.5-1.7-1.5h-0.7v3.3L75.6,144.4L75.6,144.4z"/>
		<path class="st0" d="M80.4,148.1v-0.2l0.8-0.1v-6.5l-0.8-0.1V141H83v0.2l-0.8,0.1v6.6h2.7l0.7-2h0.2v2.2L80.4,148.1L80.4,148.1z"
			/>
		<path class="st0" d="M87.5,147.9l0.8-0.1v-6.5l-0.8-0.1V141h3.4c0.7,0,1.2,0.1,1.8,0.4c0.5,0.3,0.9,0.7,1.2,1.3
			c0.3,0.5,0.4,1.2,0.4,1.9s-0.1,1.3-0.4,1.9c-0.3,0.5-0.7,1-1.2,1.3s-1.1,0.4-1.8,0.4h-3.4V147.9z M91,147.9c0.4,0,0.8-0.1,1.2-0.3
			c0.3-0.2,0.6-0.5,0.8-0.9s0.3-0.9,0.3-1.5v-1.4c0-0.6-0.1-1.1-0.3-1.5s-0.5-0.7-0.8-0.9s-0.7-0.3-1.2-0.3h-1.6v6.7L91,147.9
			L91,147.9z"/>
		<path class="st0" d="M26,163.9l0.8-0.1v-6.5l-0.8-0.1V157h2.7c0.6,0,1.2,0.1,1.5,0.2c0.4,0.1,0.7,0.3,0.8,0.5
			c0.2,0.2,0.3,0.6,0.3,1c0,0.9-0.5,1.4-1.6,1.7l0,0c0.7,0.1,1.2,0.3,1.6,0.6c0.4,0.3,0.6,0.7,0.6,1.3c0,0.7-0.2,1.1-0.7,1.5
			c-0.5,0.3-1.1,0.5-2,0.5H26L26,163.9L26,163.9z M28.9,160.2c0.5,0,0.8-0.1,1.1-0.4s0.4-0.7,0.4-1.1v-0.1c0-1-0.5-1.5-1.6-1.5h-0.9
			v3.1H28.9z M29.2,163.8c0.5,0,0.9-0.1,1.2-0.4s0.4-0.7,0.4-1.3V162c0-0.5-0.1-1-0.4-1.2c-0.3-0.3-0.7-0.4-1.2-0.4h-1.4v3.4H29.2z"
			/>
		<path class="st0" d="M33.8,164.1v-0.2l0.8-0.1v-6.5l-0.8-0.1V157h5.4v2.1H39l-0.7-1.8h-2.7v3.2h1.2l0.5-1.3h0.2v2.8h-0.2l-0.5-1.3
			h-1.2v3.3h2.8l0.7-2h0.2v2.2h-5.5V164.1z"/>
		<path class="st0" d="M42.9,164.1v-0.2l0.8-0.1v-6.6h-1.5l-0.7,1.8h-0.3v-2h5.9v2h-0.3l-0.7-1.8h-1.5v6.6l0.8,0.1v0.2H42.9z"/>
		<path class="st0" d="M51.4,164.2l-2.5-7l-0.6-0.1v-0.2h2.5v0.2l-0.8,0.1l1.9,5.3l1.3-3.4l-0.7-1.9l-0.8-0.1v-0.2h2.7v0.2l-0.8,0.1
			l2,5.3l1.9-5l-1-0.4v-0.2h1.9v0.2l-0.7,0.4l-2.6,6.8H55l-1.8-4.8L51.4,164.2L51.4,164.2z"/>
		<path class="st0" d="M59.6,164.1v-0.2l0.8-0.1v-6.5l-0.8-0.1V157H65v2.1h-0.2l-0.7-1.8h-2.7v3.2h1.2l0.5-1.3h0.2v2.8h-0.2
			l-0.5-1.3h-1.2v3.3h2.8l0.7-2h0.2v2.2h-5.5V164.1L59.6,164.1z"/>
		<path class="st0" d="M67.2,164.1v-0.2l0.8-0.1v-6.5l-0.8-0.1V157h5.4v2.1h-0.2l-0.7-1.8H69v3.2h1.2l0.5-1.3h0.2v2.8h-0.2l-0.5-1.3
			H69v3.3h2.8l0.7-2h0.2v2.2h-5.5V164.1L67.2,164.1z"/>
		<path class="st0" d="M74.8,164.1v-0.2l0.8-0.4v-6.1l-0.8-0.4v-0.2h1.7l3.9,5.4v-4.9l-0.8-0.4v-0.2h1.9v0.2l-0.9,0.4v6.6h-0.2
			l-4.5-6.3v5.7l0.9,0.4v0.2h-2L74.8,164.1L74.8,164.1z"/>
		<path class="st0" d="M87.9,164.1v-0.2l0.8-0.1v-6.6h-1.5l-0.7,1.8h-0.3v-2h5.9v2h-0.3l-0.7-1.8h-1.5v6.6l0.8,0.1v0.2H87.9z"/>
		<path class="st0" d="M98.2,163.9c-0.2-0.2-0.3-0.4-0.3-0.8l-0.2-1.2c-0.1-0.4-0.2-0.7-0.4-1c-0.2-0.2-0.6-0.3-1-0.3h-0.7v3.2
			l0.8,0.1v0.2h-2.6v-0.2l0.8-0.1v-6.5l-0.8-0.1V157h2.5c1,0,1.7,0.2,2.1,0.5s0.7,0.8,0.7,1.4c0,1-0.6,1.6-1.9,1.8v0.1
			c0.5,0.1,0.8,0.2,1.1,0.5s0.5,0.6,0.5,1.1l0.1,0.8c0,0.3,0.1,0.6,0.2,0.7c0.1,0.1,0.2,0.2,0.3,0.2s0.2,0,0.3-0.1s0.2-0.1,0.3-0.2
			l0.2,0.2c-0.2,0.2-0.4,0.3-0.5,0.4c-0.2,0.1-0.4,0.1-0.6,0.1C98.7,164.1,98.4,164.1,98.2,163.9z M96.6,160.4c0.4,0,0.8-0.1,1-0.4
			s0.4-0.7,0.4-1.2v-0.2c0-1-0.6-1.5-1.7-1.5h-0.7v3.3L96.6,160.4L96.6,160.4z"/>
		<path class="st0" d="M101.4,164.1v-0.2l0.8-0.1v-6.5l-0.8-0.1V157h5.4v2.1h-0.2l-0.7-1.8h-2.7v3.2h1.2l0.5-1.3h0.2v2.8h-0.2
			l-0.5-1.3h-1.2v3.3h2.8l0.7-2h0.2v2.2h-5.5V164.1L101.4,164.1z"/>
		<path class="st0" d="M109,164.1v-0.2l0.8-0.4v-6.1L109,157v-0.2h1.7l3.9,5.4v-4.9l-0.8-0.4v-0.2h1.9v0.2l-0.9,0.4v6.6h-0.2
			l-4.5-6.3v5.7l0.9,0.4v0.2h-2L109,164.1L109,164.1z"/>
		<path class="st0" d="M117.4,163.9l0.8-0.1v-6.5l-0.8-0.1V157h3.4c0.7,0,1.2,0.1,1.8,0.4c0.5,0.3,0.9,0.7,1.2,1.3
			c0.3,0.5,0.4,1.2,0.4,1.9s-0.1,1.3-0.4,1.9c-0.3,0.5-0.7,1-1.2,1.3s-1.1,0.4-1.8,0.4h-3.4V163.9z M120.8,163.8
			c0.4,0,0.8-0.1,1.2-0.3c0.3-0.2,0.6-0.5,0.8-0.9s0.3-0.9,0.3-1.5v-1.4c0-0.6-0.1-1.1-0.3-1.5s-0.5-0.7-0.8-0.9s-0.7-0.3-1.2-0.3
			h-1.6v6.7L120.8,163.8L120.8,163.8z"/>
		<path class="st0" d="M25.4,180v-0.2l0.9-0.4l2.6-6.8H29l2.5,7l0.8,0.1v0.2h-2.6v-0.2l0.7-0.1l-0.8-2.1h-2.4l-0.7,1.9l0.8,0.4v0.2
			H25.4L25.4,180z M27.4,177.4h2.3l-1.1-3.2L27.4,177.4z"/>
		<path class="st0" d="M33.6,180v-0.2l0.8-0.4v-6.1l-0.8-0.4v-0.2h1.7l3.9,5.4v-4.9l-0.8-0.4v-0.2h1.9v0.2l-0.9,0.4v6.6h-0.2
			l-4.5-6.3v5.7l0.9,0.4v0.2h-2L33.6,180L33.6,180z"/>
		<path class="st0" d="M42,179.8l0.8-0.1v-6.5l-0.8-0.1v-0.2h3.4c0.7,0,1.2,0.1,1.8,0.4c0.5,0.3,0.9,0.7,1.2,1.3
			c0.3,0.5,0.4,1.2,0.4,1.9s-0.1,1.3-0.4,1.9c-0.3,0.5-0.7,1-1.2,1.3s-1.1,0.4-1.8,0.4H42V179.8z M45.5,179.8c0.4,0,0.8-0.1,1.2-0.3
			c0.3-0.2,0.6-0.5,0.8-0.9s0.3-0.9,0.3-1.5v-1.4c0-0.6-0.1-1.1-0.3-1.5s-0.5-0.7-0.8-0.9S46,173,45.5,173h-1.6v6.7L45.5,179.8
			L45.5,179.8z"/>
		<path class="st0" d="M56.7,180.2l-2.6-7l-0.7-0.1v-0.2H56v0.2l-0.8,0.1l2,5.4l1.9-5.1l-1-0.4v-0.2H60v0.2l-0.7,0.4L56.7,180.2
			L56.7,180.2z"/>
		<path class="st0" d="M63,179.7c-0.5-0.3-0.9-0.8-1.2-1.3c-0.3-0.6-0.4-1.2-0.4-2s0.1-1.4,0.4-2s0.7-1,1.2-1.3s1.1-0.5,1.8-0.5
			s1.2,0.2,1.8,0.5c0.5,0.3,0.9,0.8,1.2,1.3c0.3,0.6,0.4,1.2,0.4,2s-0.1,1.4-0.4,2s-0.7,1-1.2,1.3s-1.1,0.5-1.8,0.5
			S63.5,180,63,179.7z M65.9,179.6c0.3-0.2,0.6-0.6,0.8-1s0.3-0.9,0.3-1.5v-1.4c0-0.6-0.1-1.1-0.3-1.5s-0.5-0.8-0.8-1
			s-0.7-0.3-1.2-0.3c-0.4,0-0.8,0.1-1.2,0.3c-0.3,0.2-0.6,0.6-0.8,1s-0.3,0.9-0.3,1.5v1.4c0,0.6,0.1,1.1,0.3,1.5s0.5,0.8,0.8,1
			s0.7,0.3,1.2,0.3C65.2,180,65.6,179.9,65.9,179.6z"/>
		<path class="st0" d="M71.7,179.7c-0.5-0.3-0.9-0.8-1.1-1.3c-0.3-0.6-0.4-1.2-0.4-2c0-0.7,0.1-1.4,0.4-2s0.7-1,1.2-1.3
			s1.1-0.5,1.7-0.5s1.1,0.2,1.6,0.5l0.5-0.5h0.2v2.2h-0.2l-0.6-1.5c-0.4-0.4-0.9-0.5-1.5-0.5c-0.4,0-0.8,0.1-1.1,0.3
			c-0.3,0.2-0.6,0.5-0.8,0.9s-0.3,0.9-0.3,1.5v1.6c0,0.6,0.1,1.1,0.3,1.5s0.4,0.7,0.7,0.9c0.3,0.2,0.7,0.3,1.1,0.3
			c0.5,0,0.9-0.2,1.2-0.5s0.4-0.7,0.4-1.3v-0.8l-0.8-0.1v-0.2h2.7v0.2l-0.8,0.1v0.8c0,0.3-0.1,0.7-0.3,1s-0.5,0.5-0.9,0.7
			S74,180,73.4,180C72.8,180.2,72.2,180,71.7,179.7z"/>
		<path class="st0" d="M79.8,179.6c-0.4-0.4-0.6-0.9-0.6-1.6v-4.9l-0.8-0.1v-0.2H81v0.2l-0.8,0.1v4.9c0,0.6,0.2,1,0.5,1.4
			s0.8,0.5,1.5,0.5c1.3,0,1.9-0.6,1.9-1.8v-4.7l-0.8-0.4v-0.2h1.9v0.2l-0.9,0.4v4.7c0,0.7-0.2,1.3-0.6,1.6s-1.1,0.5-2,0.5
			C80.8,180.2,80.2,180,79.8,179.6z"/>
		<path class="st0" d="M86.8,180v-0.2l0.8-0.1v-6.5l-0.8-0.1v-0.2h5.4v2.1H92l-0.7-1.8h-2.7v3.2h1.2l0.5-1.3h0.2v2.8h-0.2l-0.5-1.3
			h-1.2v3.3h2.8l0.7-2h0.2v2.2h-5.5V180L86.8,180z"/>
	</g>
</g>
</svg>
