<?xml version="1.0" encoding="utf-8"?>
<!-- Generator: Adobe Illustrator 23.0.0, SVG Export Plug-In . SVG Version: 6.00 Build 0)  -->
<svg version="1.1" id="图层_1" xmlns="http://www.w3.org/2000/svg" xmlns:xlink="http://www.w3.org/1999/xlink" x="0px" y="0px"
	 viewBox="0 0 32 32" style="enable-background:new 0 0 32 32;" xml:space="preserve">
<style type="text/css">
	.st0{fill:#CC273B;}
</style>
<g>
	<g>
		<path class="st0" d="M31.1,14.2L31.1,14.2C30.9,14.7,30.5,15,30,15s-0.9-0.2-1.1-0.7c-0.2-0.2-0.2-0.6-0.1-0.9l0,0
			c0.7-2,0.2-4.2-1.2-5.7c-1.4-1.6-3.5-2.2-5.5-1.8c-0.3,0.1-0.7,0-0.9-0.2C21,5.5,20.7,5.3,20.7,5c-0.2-0.5,0.2-1.1,0.8-1.3
			c2.8-0.6,5.8,0.2,7.8,2.5C31.4,8.5,32,11.5,31.1,14.2L31.1,14.2z M22.9,9.8c-0.2,0.1-0.6,0-0.7-0.2c-0.2-0.2-0.4-0.4-0.4-0.7
			c-0.1-0.6,0.2-1.1,0.8-1.2c1.4-0.3,2.9,0.2,3.8,1.2c1,1.1,1.2,2.6,0.8,3.9c-0.1,0.2-0.2,0.5-0.5,0.6s-0.5,0.2-0.8,0.1
			c-0.6-0.2-0.8-0.7-0.7-1.3l0,0c0.2-0.7,0.1-1.4-0.4-1.9C24.2,9.9,23.6,9.6,22.9,9.8L22.9,9.8z M23.7,15.4c1.8,0.6,3.8,1.9,3.8,4.3
			c0,3.9-5.6,8.8-14,8.8c-6.4,0-13-3.1-13-8.2c0-2.7,1.7-5.7,4.6-8.7C9,7.7,13.6,5.9,15.3,7.7c0.7,0.7,0.8,2,0.3,3.6
			c-0.2,0.8,0.7,0.3,0.7,0.3c3.2-1.3,5.9-1.4,6.9,0c0.6,0.7,0.5,1.8,0,3.1C23,15.3,23.3,15.3,23.7,15.4L23.7,15.4z M13.6,26.6
			c5.1-0.5,9.1-3.6,8.7-7c-0.3-3.4-4.7-5.7-9.9-5.2c-5.1,0.5-9.1,3.6-8.7,7C4,24.8,8.4,27,13.6,26.6L13.6,26.6z M14,17
			c2.5,0.7,3.8,3,2.8,5.3c-1.1,2.4-4.1,3.6-6.6,2.8c-2.4-0.8-3.5-3.2-2.4-5.4C8.8,17.5,11.6,16.4,14,17L14,17z M12.2,22.6
			c0.5-0.8,0.2-1.7-0.6-2s-1.8,0-2.3,0.7s-0.2,1.7,0.5,2C10.6,23.7,11.7,23.4,12.2,22.6L12.2,22.6z"/>
	</g>
</g>
</svg>
