<svg width="20" height="20" xmlns="http://www.w3.org/2000/svg" xml:space="preserve" style="enable-background:new 0 0 1366 768;" version="1.1">
 <style type="text/css">.st0{fill:#B40A13;}</style>

 <g>
  <title>background</title>
  <rect fill="none" id="canvas_background" height="22" width="22" y="-1" x="-1"/>
 </g>
 <g>
  <title>Layer 1</title>
  <g stroke="null" id="svg_7">
   <path stroke="null" id="svg_6" d="m18.769084,13.68149c0,0 0,0 0,0c-0.561403,-0.67966 -1.263158,-1.132766 -2.245614,-1.359319c-0.982456,-0.226553 -1.824561,-0.113277 -2.666666,0.226553l0,0c-0.140351,0 -0.140351,0.113277 -0.280702,0.113277l-5.473683,-2.492086c0,0 0,-0.113277 0,-0.113277c0,-0.566383 -0.140351,-1.01949 -0.421053,-1.359319l5.473683,-2.605362c0.280702,-0.113277 0.561403,-0.453106 0.421053,-0.792936c0,-0.226553 0,-0.33983 0,-0.33983c0,-0.453106 0.140351,-0.67966 0.561403,-1.01949c0.421053,-0.33983 0.842105,-0.453106 1.263158,-0.453106c0,0 0,0 0,0c0.561403,0 0.982456,0.113277 1.263158,0.453106c0.421053,0.33983 0.561403,0.67966 0.561403,1.01949s-0.140351,0.67966 -0.561403,1.01949c-0.421053,0.33983 -0.842105,0.453106 -1.263158,0.453106c0,0 0,0 0,0c-0.421053,0 -0.842105,0.33983 -0.842105,0.67966c0,0.33983 0.421053,0.67966 0.842105,0.67966c0,0 0,0 0,0c0.982456,0 1.824561,-0.33983 2.526315,-0.906213c0.701754,-0.566383 1.122807,-1.246043 1.122807,-2.038979c0,-0.792936 -0.421053,-1.472596 -1.122807,-2.038979c-0.701754,-0.566383 -1.543859,-0.792936 -2.526315,-0.792936c0,0 0,0 0,0c-0.982456,0 -1.824561,0.33983 -2.526315,0.792936c-0.701754,0.566383 -1.122807,1.246043 -1.122807,2.038979c0,0 0,0.113277 0,0.113277l-5.333332,2.718639c-0.140351,0 -0.140351,-0.113277 -0.280702,-0.113277c0,0 0,0 0,0c-0.561403,-0.226553 -1.122807,-0.33983 -1.68421,-0.33983c0,0 0,0 0,0c-0.982456,0 -1.824561,0.226553 -2.526315,0.792936c-0.701754,0.566383 -1.122807,1.246043 -1.122807,2.038979c0,0.792936 0.421053,1.472596 1.122807,2.038979c0.701754,0.566383 1.543859,0.906213 2.526315,0.906213c0,0 0,0 0,0c0.421053,0 0.842105,-0.33983 0.842105,-0.67966c0,-0.33983 -0.421053,-0.67966 -0.842105,-0.67966c0,0 0,0 0,0c-0.561403,0 -0.982456,-0.113277 -1.263158,-0.453106c-0.421053,-0.33983 -0.561403,-0.67966 -0.561403,-1.01949c0,-0.453106 0.140351,-0.67966 0.561403,-1.01949c0.421053,-0.33983 0.842105,-0.453106 1.263158,-0.453106c0,0 0,0 0,0c0.561403,0 0.982456,0.113277 1.263158,0.453106c0.421053,0.33983 0.561403,0.67966 0.561403,1.01949c0,0 0,0.113277 0,0.33983c-0.140351,0.33983 0.140351,0.566383 0.421053,0.792936l0.421053,0.226553c0,0 0,0 0,0l0,0l0.140351,0l0,0l5.473683,2.492086l0,0l0.140351,0l0,0l0,0l0.421053,0.226553c0.280702,0.113277 0.701754,0.113277 0.982456,-0.113277c0.280702,-0.226553 0.280702,-0.226553 0.421053,-0.226553c0.421053,-0.226553 0.842105,-0.226553 1.403509,-0.113277c0.561403,0.113277 0.842105,0.33983 1.122807,0.67966c0,0 0,0 0,0c0.280702,0.33983 0.280702,0.67966 0.140351,1.132766c-0.140351,0.453106 -0.421053,0.67966 -0.842105,0.906213c-0.421053,0.226553 -0.842105,0.226553 -1.403509,0.113277c-0.561403,-0.113277 -0.842105,-0.33983 -1.122807,-0.67966c0,0 0,0 0,0c-0.280702,-0.33983 -0.842105,-0.453106 -1.263158,-0.226553c-0.421053,0.226553 -0.561403,0.566383 -0.280702,0.906213c0,0 0,0 0,0c0.561403,0.67966 1.263158,1.132766 2.245614,1.246043c0.982456,0.226553 1.824561,0.113277 2.666666,-0.33983c0.842105,-0.33983 1.403509,-1.01949 1.68421,-1.812426c0.280702,-0.67966 0.140351,-1.359319 -0.280702,-2.038979z"/>
  </g>
 </g>
</svg>