<?xml version="1.0" encoding="utf-8"?>
<!-- Generator: Adobe Illustrator 23.0.0, SVG Export Plug-In . SVG Version: 6.00 Build 0)  -->
<svg version="1.1" id="图层_1" xmlns="http://www.w3.org/2000/svg" xmlns:xlink="http://www.w3.org/1999/xlink" x="0px" y="0px"
	 viewBox="0 0 32 32" style="enable-background:new 0 0 32 32;" xml:space="preserve">
<style type="text/css">
	.st0{fill:#C5C4C4;}
</style>
<g>
	<path class="st0" d="M21.9,11.1c0.1,0,0.3,0,0.4,0c-0.9-4.3-5.2-7.6-10.5-7.6C5.7,3.5,1,7.6,1,12.8c0,3.1,1.6,5.6,4.2,7.4l-1,3.2
		l3.6-2.1c1.2,0.4,2.7,0.7,4,0.7c0.3,0,0.6,0,0.7,0c-0.3-0.7-0.4-1.6-0.4-2.5C12.3,15,16.6,11.1,21.9,11.1L21.9,11.1z M15.4,8.4
		c0.9,0,1.6,0.7,1.6,1.6c0,1-0.7,1.6-1.6,1.6c-0.9,0-1.6-0.6-1.6-1.6C14,9.1,14.7,8.4,15.4,8.4L15.4,8.4z M8.2,11.4
		c-0.9,0-1.6-0.7-1.6-1.6c0-1,0.7-1.6,1.6-1.6s1.6,0.7,1.6,1.6S9.1,11.4,8.2,11.4L8.2,11.4z"/>
	<path class="st0" d="M31,19.7c0-4.3-4-7.6-9.1-7.6s-9.1,3.5-9.1,7.6s4,7.6,9.1,7.6c1,0,2-0.1,3-0.4l3.2,1.6L27.2,26
		C29.4,24.5,31,22.3,31,19.7L31,19.7z M19,18.5c-0.7,0-1.3-0.6-1.3-1.3s0.6-1.3,1.3-1.3c0.7,0,1.3,0.6,1.3,1.3
		C20.5,17.9,19.8,18.5,19,18.5L19,18.5z M24.9,18.5c-0.7,0-1.3-0.6-1.3-1.3s0.6-1.3,1.3-1.3s1.3,0.6,1.3,1.3S25.8,18.5,24.9,18.5
		L24.9,18.5z"/>
</g>
</svg>
