<?xml version="1.0" encoding="utf-8"?>
<!-- Generator: Adobe Illustrator 23.0.0, SVG Export Plug-In . SVG Version: 6.00 Build 0)  -->
<svg version="1.1" id="图层_1" xmlns="http://www.w3.org/2000/svg" xmlns:xlink="http://www.w3.org/1999/xlink" x="0px" y="0px"
	 viewBox="0 0 96 255" style="enable-background:new 0 0 96 255;" xml:space="preserve">
<style type="text/css">
	.st0{fill:#FFFFFF;}
	.st1{fill:url(#SVGID_1_);}
</style>
<g>
	<rect width="96" height="170"/>
	<g>
		<path class="st0" d="M28.4,75.4v6.9v1.4v0.1h17.2h1.2h0.4v-5.4c0-4.8-9.4-4.4-9.4-4.4v1c7.7,0.2,7.8,3.4,7.8,3.4v3.9H29.9V77
			C28.6,76.2,28.4,75.4,28.4,75.4z"/>
		<path class="st0" d="M71.1,67.1L71.1,67.1L71.1,67.1c-0.2-0.5-0.4-0.9-0.6-1.3l-0.3,0.3l0,0l-2.6,2.8h-7.1v-1.2h-1.6v1.2h-8.5v1.5
			h4l-4,13.2H52l4-13.2h2.9v13.2h1.6V70.3h2.9l4,13.2h1.6l-4-13.2h3.3v-0.1l1.7-1.9c1.3,3.5,1.5,8.7,1.5,16.5c0,9-0.3,14.3-1.9,17.7
			l-1.1-1c-0.1-0.1-0.2-0.3-0.3-0.4c-1.5-2.7-4.5-9.3,0.8-15.2h-1.8c0,0-6,6.3-0.4,15.7l0,0c0.1,0.2,0.2,0.4,0.4,0.6c0,0,0,0,0,0.1
			c0,0,0,0,0,0c0.7,1,1.7,1.7,2.9,2.4c2.5-3.6,3-9.3,3-19.9C73,76.4,72.7,70.8,71.1,67.1z"/>
		<path class="st0" d="M48.6,61.5c10.5,0,16.2,0.4,19.3,3.5l1-1.2c-3.4-3.3-9.4-3.8-20.3-3.8c-11,0-17,0.6-20.7,3.7l1,1.1
			C32.2,62,38.2,61.5,48.6,61.5z"/>
		<path class="st0" d="M48.6,108.5c-9.8,0-15.7-0.5-19.2-3l-1,1.2c3.8,2.7,10,3.4,20.2,3.4c10.4,0,16.2-0.5,19.7-3.4l-1-1.1
			C64.2,108,58.4,108.5,48.6,108.5z"/>
		<path class="st0" d="M29.6,102h17.7v-1.5h-8.9l0.4-2.3v-2.8h8.5V94h-8.5v-5h8.5v-1.5h-8.5V86h-1.6v1.6h-7.3l-1-1l-1.4,1.2l1.5,1.2
			h8.1v5h-8.8v1.5h8.8v2.8l-0.4,2.2h-7.7l-2,2.4c-2.1-3.5-2.6-9.1-2.6-18c0-8.1,0.4-13.7,2.2-17.2l1.7,1.5v0.2v3.8
			c0,4.8,9.4,4.4,9.4,4.4v-1.2c-7.7-0.2-7.8-3.2-7.8-3.2v-3.8h15.8v5.2c1.3,0.8,1.6,1.5,1.6,1.5v-6.7v-1.5h-1.6H28.9l-2-1.8l0,0
			l-0.7-0.6c-2.7,3.8-3.3,9.9-3.3,19.4c0,10.5,0.7,16.7,3.9,20.3l0.6-0.6l0,0L29.6,102z"/>
		<rect x="58.9" y="86" class="st0" width="1.5" height="16"/>
		<path class="st0" d="M52.2,102.4c6.3-9.8,0-16.4,0-16.4h-1.8c6.7,7.5,0,16.4,0,16.4S50.6,102.4,52.2,102.4z"/>
	</g>
	<linearGradient id="SVGID_1_" gradientUnits="userSpaceOnUse" x1="2.75" y1="257.75" x2="93.25" y2="167.25">
		<stop  offset="0" style="stop-color:#FA9986"/>
		<stop  offset="1" style="stop-color:#D52C3F"/>
	</linearGradient>
	<rect y="170" class="st1" width="96" height="85"/>
	<g>
		<path class="st0" d="M63,217.8l-2.7,3L48,208.4l-12.2,12.2l-2.8-2.8l15-15L63,217.8z M63,217.8"/>
	</g>
</g>
</svg>
